<?xml version="1.0" standalone="no"?><!DOCTYPE svg PUBLIC "-//W3C//DTD SVG 1.1//EN" "http://www.w3.org/Graphics/SVG/1.1/DTD/svg11.dtd"><svg t="1699511609629" class="icon" viewBox="0 0 1446 1024" version="1.1" xmlns="http://www.w3.org/2000/svg" p-id="9529" xmlns:xlink="http://www.w3.org/1999/xlink" width="180.75" height="128"><path d="M1363.456 375.808h22.528V158.72c-0.512-64-52.224-115.2-115.712-115.2H177.152C113.152 43.008 61.44 94.72 61.44 158.72v217.088h22.528c75.264 2.56 134.144 66.048 131.072 141.312-2.56 71.168-59.904 128.512-131.072 131.072H61.44V865.28c0.512 64 52.224 115.2 115.712 115.2h1093.12c64 0 115.712-51.2 115.712-115.2v-217.088h-22.528c-75.264-3.584-133.632-67.072-130.048-142.336 3.072-70.656 59.392-126.976 130.048-130.048zM331.264 850.432h-46.592v-94.72h46.592v94.72z m0-142.336h-46.592v-94.72h46.592v94.72z m0-142.336h-46.592V470.528h46.592v95.232z m0-142.336h-46.592V328.192h46.592v95.232z m0-142.336h-46.592V185.856h46.592v95.232z m392.704 569.344c-145.408-1.024-272.384-97.28-312.32-237.056-6.656-19.456-11.776-39.424-15.36-59.904v-11.264c0-12.8 10.24-23.552 23.552-23.552h187.392c12.8 0 23.552 10.752 23.552 23.552v47.616c0 12.8-10.24 23.552-23.552 23.552h-97.28c49.664 118.272 186.368 174.08 304.64 123.904 55.808-23.552 100.352-68.096 123.904-123.904h98.304c-40.448 139.264-167.424 236.032-312.832 237.056z m327.68-355.84c0 12.8-10.24 23.552-23.552 23.552h-187.392c-12.8 0-23.552-10.752-23.552-23.552v-47.616c0-12.8 10.24-23.552 23.552-23.552h97.28c-49.664-118.272-186.368-174.08-304.64-123.904-55.808 23.552-100.352 68.096-123.904 123.904H411.648c48.128-172.544 227.328-273.408 399.872-225.28 109.056 30.72 194.56 115.712 225.28 225.28 6.656 19.456 11.776 39.936 15.36 59.904v11.264h-0.512z m111.616 355.84h-46.592v-94.72h46.592v94.72z m0-142.336h-46.592v-94.72h46.592v94.72z m0-142.336h-46.592V470.528h46.592v95.232z m0-142.336h-46.592V328.192h46.592v95.232z m0-142.336h-46.592V185.856h46.592v95.232z" fill="#ECC94B" p-id="9530"></path></svg>